HIERARCHY
ROOT Hips
{
	OFFSET 0.000000 8.830580 0.000000
	CHANNELS 6 Xposition Yposition Zposition Zrotation Yrotation Xrotation 
	JOINT Spine
	{
		OFFSET 0.000000 0.010000 0.000000
		CHANNELS 3 Zrotation Yrotation Xrotation
		JOINT Spine1
		{
			OFFSET 0.000000 2.459130 0.000000
			CHANNELS 3 Zrotation Yrotation Xrotation
			JOINT Neck
			{
				OFFSET 0.000000 2.484630 0.000000
				CHANNELS 3 Zrotation Yrotation Xrotation
				JOINT Head_virtual
				{
					OFFSET 0.000000 0.000000 0.000000
					CHANNELS 3 Zrotation Yrotation Xrotation
					JOINT Head
					{
						OFFSET 0.000000 0.927525 0.000000
						CHANNELS 3 Zrotation Yrotation Xrotation
						End Site
						{
							OFFSET 0.000000 0.000000 0.000000
						}
					}
				}
				JOINT LeftUpArm_virtual
				{
					OFFSET 0.000000 0.000000 0.000000
					CHANNELS 3 Zrotation Yrotation Xrotation
					JOINT LeftUpArm
					{
						OFFSET 1.248820 0.000000 0.000000
						CHANNELS 3 Zrotation Yrotation Xrotation
						JOINT LeftForeArm
						{
							OFFSET 2.597580 0.000000 0.000000
							CHANNELS 3 Zrotation Yrotation Xrotation
							JOINT LeftHand
							{
								OFFSET 2.455420 0.000000 0.000000
								CHANNELS 3 Zrotation Yrotation Xrotation
								End Site
								{
									OFFSET 0.000000 0.000000 0.000000
								}
							}
						}
					}
				}
				JOINT RightUpArm_virtual
				{
					OFFSET -0.000000 -0.000000 -0.000000
					CHANNELS 3 Zrotation Yrotation Xrotation
					JOINT RightUpArm
					{
						OFFSET -1.248820 -0.000000 -0.000000
						CHANNELS 3 Zrotation Yrotation Xrotation
						JOINT RightForeArm
						{
							OFFSET -2.597580 -0.000000 -0.000000
							CHANNELS 3 Zrotation Yrotation Xrotation
							JOINT RightHand
							{
								OFFSET -2.455420 -0.000000 -0.000000
								CHANNELS 3 Zrotation Yrotation Xrotation
								End Site
								{
									OFFSET 0.000000 0.000000 0.000000
								}
							}
						}
					}
				}
			}
		}
	}
	JOINT LeftUpLeg
	{
		OFFSET 1.271939 0.000000 0.000000
		CHANNELS 3 Zrotation Yrotation Xrotation
		JOINT LeftLowLeg
		{
			OFFSET 0.000000 -4.342910 0.000000
			CHANNELS 3 Zrotation Yrotation Xrotation
			JOINT LeftFoot
			{
				OFFSET 0.000000 -4.487670 0.000000
				CHANNELS 3 Zrotation Yrotation Xrotation
				JOINT LeftToeBase
				{
					OFFSET 0.000000 0.000000 1.515070
					CHANNELS 3 Zrotation Yrotation Xrotation
					End Site
					{
						OFFSET 0.000000 0.000000 0.000000
					}
				}
			}
		}
	}
	JOINT RightUpLeg
	{
		OFFSET -1.271939 0.000000 0.000000
		CHANNELS 3 Zrotation Yrotation Xrotation
		JOINT RightLowLeg
		{
			OFFSET 0.000000 -4.342910 0.000000
			CHANNELS 3 Zrotation Yrotation Xrotation
			JOINT RightFoot
			{
				OFFSET 0.000000 -4.487670 0.000000
				CHANNELS 3 Zrotation Yrotation Xrotation
				JOINT RightToeBase
				{
					OFFSET 0.000000 0.000000 1.515070
					CHANNELS 3 Zrotation Yrotation Xrotation
					End Site
					{
						OFFSET 0.000000 0.000000 0.000000
					}
				}
			}
		}
	}
}
MOTION
Frames: 17
Frame Time: 0.041667
-15.609401 8.782491 40.064059 -106.347434 -81.580211 116.653903 4.304547 -9.775985 4.616011 2.280582 8.668326 7.171268 0.000000 0.000000 0.000000 45.808709 16.699696 -24.913943 -1.299948 -36.144368 -87.197266 -18.349501 -0.324848 11.600006 -57.263500 -19.639500 7.850780 0.000000 -18.780001 0.000000 11.803300 15.158100 2.995010 24.918501 -2.600650 0.645996 59.190601 41.755001 23.145996 -180.000000 29.009995 180.000000 -87.862503 52.693600 -4.184410 5.160554 -2.973328 -43.474488 0.000000 0.000000 64.580498 -25.153466 -4.820097 0.134074 0.000000 0.000000 -25.271600 12.548913 14.801768 -13.948669 0.000000 0.000000 13.080800 22.880331 -12.011335 -4.978872 0.000000 0.000000 -18.773050 
-15.547584 8.796504 40.083654 -103.600565 -82.503868 114.925120 3.982074 -9.855106 5.626874 1.918481 8.427641 6.408192 0.000000 0.000000 0.000000 45.996690 16.761004 -26.489077 -0.563973 -35.010519 -87.966424 -18.343599 -0.752663 11.540985 -57.213600 -19.980600 7.997630 0.000000 -18.628901 0.000000 11.807000 15.145300 4.055540 24.795401 -2.194290 0.514008 59.113899 41.085899 23.774994 180.000000 29.496002 180.000000 -87.674004 52.707802 -4.765790 4.562266 -4.137357 -44.326666 0.000000 0.000000 59.411999 -25.182555 -5.436953 -0.984027 0.000000 0.000000 -24.899150 11.372302 14.647131 -15.521603 0.000000 0.000000 13.230700 22.476067 -12.552409 -4.878787 0.000000 0.000000 -19.382470 
-15.492162 8.812281 40.101879 -100.637533 -83.484453 113.579048 3.666774 -9.931645 5.820509 1.586249 8.246462 5.805703 0.000000 0.000000 0.000000 46.473351 16.849307 -27.925663 -0.163679 -33.912042 -88.526832 -18.425301 -1.265430 12.320007 -56.962200 -21.034300 7.354600 0.000000 -18.473600 0.000000 11.857800 15.347400 4.921010 24.718800 -1.706190 1.317993 58.589001 41.314899 23.593994 180.000000 29.828995 -180.000000 -87.214798 52.999599 -4.383420 4.205934 -5.445602 -45.438874 0.000000 0.000000 53.653599 -25.189446 -5.641350 -2.024107 0.000000 0.000000 -24.889570 10.031350 14.417930 -17.596717 0.000000 0.000000 13.279300 21.635706 -13.137232 -4.737562 0.000000 0.000000 -19.906840 
-15.445502 8.826199 40.114764 -98.645453 -84.317665 112.626954 3.194552 -9.872329 6.553894 1.278268 8.114111 4.991849 0.000000 0.000000 0.000000 47.135164 17.124754 -28.899490 0.234057 -33.040787 -89.089852 -18.357700 -1.777400 12.100006 -57.171700 -21.192101 6.762750 0.000000 -18.136700 0.000000 11.670500 15.440700 5.351870 24.670099 -1.307330 1.063995 58.639400 40.612999 24.089996 -180.000000 30.056000 -180.000000 -87.287300 52.855099 -4.719870 4.183951 -6.816272 -45.630472 0.000000 0.000000 47.494499 -24.555180 -5.390993 -3.581462 0.000000 0.000000 -23.813550 8.936596 14.325882 -18.948688 0.000000 0.000000 13.221000 22.857792 -13.160940 -5.316015 0.000000 0.000000 -18.695570 
-15.401137 8.839488 40.129912 -97.005804 -85.051963 112.353686 2.720150 -9.786108 6.958157 1.191172 8.051791 4.043608 0.000000 0.000000 0.000000 47.701226 17.268296 -29.791122 0.452523 -32.285960 -89.311844 -18.407499 -2.282040 12.419006 -57.283699 -21.689800 6.174800 0.000000 -17.995100 0.000000 11.508500 15.728700 4.979590 24.539000 -0.884906 1.342987 58.518799 40.539799 24.407013 -180.000000 30.173004 -180.000000 -87.432098 52.748001 -4.979210 4.444819 -8.147405 -45.939817 0.000000 0.000000 41.141102 -25.018044 -5.186937 -4.725294 0.000000 0.000000 -23.573350 7.828272 14.123055 -20.569848 0.000000 0.000000 13.027200 22.204154 -13.430415 -5.052723 0.000000 0.000000 -18.945690 
-15.364873 8.851411 40.135122 -96.203416 -85.674470 113.271402 2.167424 -9.632215 6.788849 1.248605 8.066968 3.223127 0.000000 0.000000 0.000000 48.433751 17.494985 -30.438676 0.485229 -31.650306 -89.430367 -18.478500 -2.627130 13.062988 -57.194000 -22.548401 6.108650 0.000000 -17.990801 0.000000 11.424900 15.975400 4.094050 24.623100 -0.468207 2.299988 57.967300 41.225101 24.283997 180.000000 30.199005 180.000000 -87.140602 52.625401 -5.387110 4.757269 -8.892502 -46.285142 0.000000 0.000000 34.609501 -26.213848 -5.278914 -5.453500 0.000000 0.000000 -23.467370 6.789157 14.093153 -22.500114 0.000000 0.000000 12.860900 22.317667 -13.600978 -5.064787 0.000000 0.000000 -18.730580 
-15.336264 8.855906 40.136623 -96.843760 -85.898302 115.295059 1.731517 -9.411310 6.772213 1.517522 8.188980 2.429881 0.000000 0.000000 0.000000 48.773269 17.669548 -30.832492 0.834637 -31.276856 -89.730301 -18.410601 -3.085620 13.204987 -57.490601 -22.771299 6.142750 0.000000 -18.142500 0.000000 11.441100 15.946300 3.939740 24.317200 0.123494 3.500000 57.741402 41.965199 24.154999 180.000000 30.294006 180.000000 -87.154900 53.019199 -6.061450 5.555549 -9.587238 -46.397931 0.000000 0.000000 28.743601 -26.763440 -5.004114 -6.560615 0.000000 0.000000 -22.767860 6.227684 14.002507 -23.992972 0.000000 0.000000 12.619800 22.494753 -13.327520 -4.860813 0.000000 0.000000 -18.746500 
-15.315272 8.858871 40.136392 -96.767257 -86.017143 116.213229 1.255344 -9.219773 6.982619 1.853724 8.266861 1.697574 0.000000 0.000000 0.000000 49.461259 17.926758 -31.019099 0.735987 -30.974811 -89.752694 -18.392099 -3.428300 12.987000 -57.722698 -22.646601 7.195840 0.000000 -18.586599 0.000000 11.824600 16.246000 4.897750 24.320400 0.607832 3.337006 57.845901 41.754700 24.880005 180.000000 30.406006 -180.000000 -87.554497 53.174801 -6.440370 6.007173 -9.555749 -45.989860 0.000000 0.000000 23.232500 -25.934013 -5.140024 -7.108231 0.000000 0.000000 -22.324870 5.915597 13.828139 -24.985027 0.000000 0.000000 12.318600 22.406396 -13.134146 -4.588170 0.000000 0.000000 -18.924030 
-15.304649 8.857945 40.136014 -98.344163 -85.991971 118.628284 0.860698 -8.944560 7.027614 2.150457 8.437750 1.250002 0.000000 0.000000 0.000000 50.006500 18.128121 -31.224371 0.809916 -30.715814 -89.923340 -18.338600 -3.768830 13.131989 -57.878399 -22.913601 8.209950 0.000000 -18.981100 0.000000 12.318500 16.602501 4.831000 24.457001 1.087510 3.457001 57.636799 41.860901 25.501007 -180.000000 30.332001 -180.000000 -87.547600 53.096600 -6.876880 6.108126 -8.942715 -45.363646 0.000000 0.000000 18.502701 -25.904694 -5.859158 -7.233287 0.000000 0.000000 -22.291400 5.629736 14.075582 -25.822567 0.000000 0.000000 12.105400 22.752056 -13.011246 -4.625094 0.000000 0.000000 -18.929140 
-15.300830 8.850370 40.132231 -99.207435 -85.650707 120.175837 0.596612 -8.695557 7.010782 2.620164 8.624809 0.918438 0.000000 0.000000 0.000000 50.714573 18.332663 -31.298041 0.543033 -30.517064 -89.748300 -18.198700 -3.851140 13.276001 -58.077599 -23.265301 9.679680 0.000000 -19.399300 0.000000 12.346800 16.305500 4.096900 24.544901 1.604620 3.700989 57.496101 42.179699 26.221008 180.000000 30.246002 180.000000 -87.418404 52.959099 -7.068760 6.250158 -8.047833 -44.708400 0.000000 0.000000 14.957500 -26.403971 -6.337361 -7.416776 0.000000 0.000000 -22.392510 5.571428 14.723656 -26.551682 0.000000 0.000000 12.036500 22.684055 -13.338885 -4.630687 0.000000 0.000000 -18.727510 
-15.304208 8.837429 40.129080 -99.763040 -85.028690 121.222224 0.456838 -8.406291 7.034634 3.392365 8.887862 0.692162 0.000000 0.000000 0.000000 51.081003 18.352545 -31.559453 0.421470 -30.284395 -89.559057 -18.219200 -3.763500 13.191010 -58.255600 -23.364500 11.854700 0.000000 -20.153000 0.000000 12.596100 16.033600 3.681120 24.160801 1.878100 2.467987 58.768501 41.382000 28.580994 -180.000000 30.337006 -180.000000 -87.660896 53.542400 -7.799710 6.984635 -7.495476 -44.231411 0.000000 0.000000 13.176100 -26.270058 -6.056940 -7.799508 0.000000 0.000000 -22.254550 5.744814 15.589582 -27.075003 0.000000 0.000000 12.042000 21.888041 -13.926337 -4.416979 0.000000 0.000000 -19.333970 
-15.314582 8.820038 40.122235 -99.541339 -84.173972 121.382609 0.440788 -8.121736 6.937519 4.119501 9.186932 0.495557 0.000000 0.000000 0.000000 51.688185 18.546006 -31.332741 0.236915 -30.365262 -89.548255 -18.009600 -3.860710 12.964996 -58.659901 -23.145399 13.861500 0.000000 -20.915800 0.000000 13.223400 15.765700 3.555990 24.217899 2.290150 3.112000 58.477001 42.094700 29.023987 180.000000 30.197998 180.000000 -87.627296 53.442799 -8.799390 8.241802 -7.286674 -44.081743 0.000000 0.000000 13.009600 -27.355522 -5.957025 -8.714522 0.000000 0.000000 -22.302790 6.205958 16.562939 -27.369846 0.000000 0.000000 11.937900 22.292962 -14.208026 -4.699357 0.000000 0.000000 -19.072050 
-15.327120 8.805200 40.116243 -99.607385 -83.391660 121.708877 0.232341 -7.867176 6.958775 5.045772 9.400433 0.287704 0.000000 0.000000 0.000000 52.083807 18.672506 -31.254967 0.190880 -30.349231 -89.434336 -18.074400 -3.800250 12.782013 -58.745201 -22.900499 15.944600 0.000000 -21.946899 0.000000 13.789100 15.551400 4.201200 24.218800 2.530140 2.856995 58.700100 42.165401 30.475006 180.000000 30.108994 180.000000 -88.000298 53.515701 -10.483300 8.506983 -6.129053 -43.747680 0.000000 0.000000 12.125900 -29.666147 -6.941486 -9.147319 0.000000 0.000000 -20.924390 6.720650 17.152807 -27.487973 0.000000 0.000000 11.817900 22.156883 -14.202063 -4.595235 0.000000 0.000000 -19.201620 
-15.335402 8.799865 40.115896 -99.645882 -83.017555 122.081386 -0.162586 -7.715854 7.068187 5.764301 9.488138 -0.149831 0.000000 0.000000 0.000000 52.582303 18.820132 -31.236448 0.182628 -30.278277 -89.324395 -18.321899 -3.738620 12.791992 -58.608799 -22.861700 17.378599 0.000000 -22.747700 0.000000 14.445000 15.328900 6.131310 24.440201 2.557730 2.338013 58.979500 42.147202 32.230011 -180.000000 30.095993 -180.000000 -88.440498 53.882599 -11.628700 8.657914 -5.462486 -43.547319 0.000000 0.000000 10.949800 -31.217137 -7.312369 -8.378627 0.000000 0.000000 -20.989480 6.849985 17.448900 -27.802559 0.000000 0.000000 11.874800 22.372669 -13.870761 -4.613514 0.000000 0.000000 -19.374060 
-15.339854 8.799923 40.120229 -99.248773 -82.797140 122.356079 -0.553300 -7.674974 6.990986 6.439247 9.508451 -0.786021 0.000000 0.000000 0.000000 52.947100 18.970896 -31.221252 0.053488 -30.180394 -89.242661 -18.533501 -3.604960 13.044006 -58.475899 -23.076500 18.413401 0.000000 -23.389000 0.000000 14.996700 15.201400 8.879770 24.474501 2.638630 1.752991 59.442101 41.896000 34.098999 -180.000000 30.011993 -180.000000 -88.427498 54.493801 -12.042600 8.491262 -4.801647 -44.057556 0.000000 0.000000 10.621400 -31.918089 -7.749759 -7.543393 0.000000 0.000000 -20.857090 6.445996 18.432294 -28.749624 0.000000 0.000000 12.259800 22.430417 -14.597204 -4.992129 0.000000 0.000000 -19.404080 
-15.343181 8.798043 40.127030 -96.544936 -82.563609 120.399657 -0.464659 -7.799975 6.675883 6.657062 9.509971 -1.325510 0.000000 0.000000 0.000000 53.217041 19.088866 -31.093835 0.319817 -30.258487 -89.415374 -18.290501 -3.640350 13.246002 -58.565201 -23.361601 19.586100 0.000000 -23.775801 0.000000 15.262600 15.178700 10.488400 24.451799 2.680550 1.670990 59.778599 42.037399 35.276001 180.000000 29.994995 180.000000 -88.431000 54.731499 -12.547200 9.261861 -5.307230 -45.540248 0.000000 0.000000 11.878000 -31.820053 -7.621425 -7.520212 0.000000 0.000000 -20.863210 6.155851 19.129246 -29.801596 0.000000 0.000000 12.728300 22.506754 -15.188981 -5.427333 0.000000 0.000000 -19.656350 
-15.351786 8.797129 40.133801 -93.206988 -82.383154 117.562460 -0.310104 -7.957695 6.319094 6.855053 9.427482 -1.501119 0.000000 0.000000 0.000000 53.500597 19.084357 -31.132870 0.431546 -30.264897 -89.433323 -17.924601 -3.808430 13.285004 -59.091202 -23.689899 19.865400 0.000000 -23.641701 0.000000 15.681000 15.113100 11.787600 24.332100 2.810760 1.652008 60.047401 42.172199 36.072998 -180.000000 29.985001 180.000000 -88.079300 55.044899 -12.396500 9.773673 -5.701341 -46.603530 0.000000 0.000000 12.800100 -31.702441 -7.742004 -7.202800 0.000000 0.000000 -20.994010 6.053693 19.484946 -30.420547 0.000000 0.000000 13.009100 22.375073 -15.702819 -5.844753 0.000000 0.000000 -19.470310 
